<?xml version="1.0" encoding="UTF-8"?>
<!DOCTYPE svg PUBLIC "-//W3C//DTD SVG 1.1//EN" "http://www.w3.org/Graphics/SVG/1.1/DTD/svg11.dtd">
<!-- Creator: CorelDRAW 2020 (64-Bit) -->
<svg xmlns="http://www.w3.org/2000/svg" xml:space="preserve" width="70.901mm" height="39.552mm" version="1.1" style="shape-rendering:geometricPrecision; text-rendering:geometricPrecision; image-rendering:optimizeQuality; fill-rule:evenodd; clip-rule:evenodd"
viewBox="0 0 7090.1 3955.2"
 xmlns:xlink="http://www.w3.org/1999/xlink"
 xmlns:xodm="http://www.corel.com/coreldraw/odm/2003">
 <defs>
  <style type="text/css">
   <![CDATA[
    .fil0 {fill:#003399}
    .fil9 {fill:#003399;fill-rule:nonzero}
    .fil4 {fill:url(#id0)}
    .fil1 {fill:url(#id1)}
    .fil8 {fill:url(#id2)}
    .fil6 {fill:url(#id3)}
    .fil5 {fill:url(#id4)}
    .fil7 {fill:url(#id5)}
    .fil2 {fill:url(#id6)}
    .fil3 {fill:url(#id7)}
   ]]>
  </style>
  <linearGradient id="id0" gradientUnits="userSpaceOnUse" x1="3488.66" y1="1938.08" x2="2121.78" y2="1938.08">
   <stop offset="0" style="stop-opacity:1; stop-color:#E33D00"/>
   <stop offset="1" style="stop-opacity:1; stop-color:#FF6600"/>
  </linearGradient>
  <linearGradient id="id1" gradientUnits="userSpaceOnUse" x1="2993.61" y1="1037.24" x2="2993.61" y2="354.28">
   <stop offset="0" style="stop-opacity:1; stop-color:#990000"/>
   <stop offset="1" style="stop-opacity:1; stop-color:#CC3300"/>
  </linearGradient>
  <linearGradient id="id2" gradientUnits="userSpaceOnUse" x1="3071.06" y1="747.61" x2="2647.06" y2="747.61">
   <stop offset="0" style="stop-opacity:1; stop-color:#006633"/>
   <stop offset="1" style="stop-opacity:1; stop-color:#7BD41A"/>
  </linearGradient>
  <linearGradient id="id3" gradientUnits="userSpaceOnUse" xlink:href="#id0" x1="4361.05" y1="728.61" x2="4102.05" y2="728.61">
  </linearGradient>
  <linearGradient id="id4" gradientUnits="userSpaceOnUse" xlink:href="#id1" x1="4218.05" y1="2170.59" x2="4218.05" y2="1965.6">
  </linearGradient>
  <linearGradient id="id5" gradientUnits="userSpaceOnUse" x1="2838.06" y1="1988.6" x2="2838.06" y2="2247.59">
   <stop offset="0" style="stop-opacity:1; stop-color:#003399"/>
   <stop offset="1" style="stop-opacity:1; stop-color:#00B0D9"/>
  </linearGradient>
  <linearGradient id="id6" gradientUnits="userSpaceOnUse" xlink:href="#id2" x1="4559.27" y1="2117.96" x2="3548.81" y2="2117.96">
  </linearGradient>
  <linearGradient id="id7" gradientUnits="userSpaceOnUse" xlink:href="#id5" x1="4242.41" y1="228.02" x2="4242.41" y2="1524.31">
  </linearGradient>
 </defs>
 <g id="Слой_x0020_1">
  <metadata id="CorelCorpID_0Corel-Layer"/>
  <path class="fil0" d="M2250.57 1322.07c-202.76,-348.55 -146.48,-780.61 137.84,-1066.33 177.06,-177.91 415.66,-265.8 665.82,-242.71 321.48,29.68 609.55,305.84 826.29,523.82 6,6.05 5.99,15.87 -0.06,21.87 -6.05,6 -15.86,5.99 -21.87,-0.06 -210.36,-211.57 -495.07,-486.02 -807.2,-514.83 -240.98,-22.25 -470.51,62.34 -641.05,233.72 -274.44,275.79 -328.75,692.52 -133.05,1028.97 4.28,7.36 1.78,16.85 -5.58,21.14 -7.37,4.28 -16.86,1.77 -21.14,-5.59z"/>
  <path class="fil0" d="M4803.1 1488.46c202.75,348.55 146.48,780.61 -137.85,1066.33 -177.05,177.92 -415.65,265.8 -665.82,242.71 -321.47,-29.67 -609.54,-305.84 -826.29,-523.82 -6,-6.05 -5.98,-15.87 0.06,-21.87 6.05,-6 15.87,-5.98 21.87,0.06 210.36,211.57 495.07,486.02 807.21,514.83 240.98,22.25 470.5,-62.34 641.04,-233.72 274.45,-275.79 328.76,-692.52 133.06,-1028.97 -4.29,-7.36 -1.78,-16.85 5.58,-21.14 7.36,-4.28 16.86,-1.77 21.14,5.59z"/>
  <path class="fil0" d="M3638.44 106.45c357.55,-186.41 786.55,-110.21 1058.81,187.03 169.54,185.09 246.29,427.5 211.65,676.34 -44.51,319.75 -333.7,594.74 -561.48,801.17 -6.32,5.72 -16.13,5.25 -21.84,-1.07 -5.72,-6.32 -5.25,-16.13 1.07,-21.84 221.07,-200.35 508.39,-472.07 551.61,-782.53 33.38,-239.7 -40.5,-472.88 -203.81,-651.17 -262.8,-286.91 -676.57,-360.44 -1021.71,-180.51 -7.55,3.94 -16.92,0.99 -20.86,-6.56 -3.94,-7.55 -0.99,-16.92 6.56,-20.86z"/>
  <path class="fil0" d="M3404.5 2704.08c-357.56,186.41 -786.55,110.21 -1058.81,-187.03 -169.54,-185.09 -246.29,-427.5 -211.65,-676.33 44.51,-319.76 333.7,-594.75 561.48,-801.18 6.32,-5.72 16.13,-5.25 21.84,1.07 5.72,6.32 5.25,16.13 -1.07,21.84 -221.07,200.35 -508.4,472.07 -551.61,782.53 -33.38,239.7 40.5,472.89 203.81,651.17 262.8,286.91 676.57,360.44 1021.71,180.51 7.55,-3.94 16.92,-0.99 20.85,6.56 3.94,7.55 1,16.92 -6.55,20.86z"/>
  <path class="fil1" d="M3657.06 520.53c-173.96,-179.07 -396.47,-334.12 -648.51,-357.41 -199.78,-18.45 -388.32,51.34 -529.59,193.31 -233.22,234.34 -273.13,582.75 -111.39,860.8 45.83,-45.11 91.67,-90.2 137.51,-135.28 -94.92,-197.56 -65.99,-431.33 91.28,-593.58 213.71,-220.45 519.27,-180.83 746.1,-3.56 109.33,85.46 210.33,91.38 314.6,35.72z"/>
  <path class="fil2" d="M3391.57 2294.65c173.96,179.08 396.46,334.13 648.48,357.42 199.79,18.46 388.33,-51.33 529.61,-193.28 233.23,-234.33 273.16,-582.77 111.42,-860.82 -45.83,45.09 -91.67,90.19 -137.51,135.26 94.92,197.58 65.97,431.37 -91.31,593.6 -213.71,220.43 -519.25,180.81 -746.07,3.56 -109.34,-85.45 -210.33,-91.39 -314.62,-35.74z"/>
  <path class="fil3" d="M4418.96 1539.74c179.08,-173.95 334.12,-396.47 357.41,-648.49 18.45,-199.8 -51.34,-388.35 -193.3,-529.61 -234.35,-233.24 -582.76,-273.14 -860.81,-111.41 45.1,45.85 90.19,91.69 135.3,137.53 197.54,-94.92 431.31,-65.99 593.57,91.28 220.44,213.7 180.82,519.28 3.55,746.1 -85.45,109.33 -91.38,210.33 -35.72,314.6z"/>
  <path class="fil4" d="M2629.69 1275.44c-179.08,173.96 -334.12,396.45 -357.41,648.49 -18.47,199.76 51.31,388.31 193.26,529.59 234.33,233.25 582.77,273.18 860.83,111.43 -45.09,-45.85 -90.18,-91.68 -135.28,-137.52 -197.56,94.92 -431.31,66 -593.57,-91.27 -220.44,-213.69 -180.84,-519.26 -3.57,-746.1 85.46,-109.34 91.4,-210.33 35.74,-314.62z"/>
  <polygon class="fil0" points="2882.64,688.43 3215.84,1016.27 3161.62,1071.39 2828.42,743.54 "/>
  <polygon class="fil0" points="4265.07,729.84 3953.92,1036.01 3921.39,1002.94 4232.53,696.78 "/>
  <polygon class="fil0" points="4218.58,2122.97 3885.38,1795.12 3939.6,1740.01 4272.8,2067.85 "/>
  <polygon class="fil0" points="2805.44,2118.25 3116.59,1812.09 3149.13,1845.15 2837.98,2151.32 "/>
  <path class="fil0" d="M3245.52 1407.56c0,-160.56 136.85,-293.15 299.53,-290.27 161.49,2.87 290.72,136.24 288.69,301.11 -0.92,74.78 -37.32,156.85 -89.88,205.35 -195.37,180.32 -498.34,46.37 -498.34,-216.19zm159.08 -158.46c-1.52,1.93 -25.7,25.93 -27.11,26.89 -7.37,-1.79 -32.46,-13.67 -35.9,-13.21 -4.01,1.34 -27.31,45.04 -29.68,49.11l29.28 25.66c-0.57,5.37 -7.63,21.87 -9.85,38.06l-38.53 5.48 0.07 58.99c6.88,1.03 14.79,2.65 20.87,3.69l14.9 3.06c3.93,1.56 3.96,11.51 6.33,20.44 1.67,6.31 3.4,12.24 5.33,17.64 -6.25,6.58 -25.38,18.48 -29.48,24.36l28.2 50.01c9.32,-0.57 24.83,-9.62 35.9,-11.95l4.15 3.95c5.62,6.39 18.15,19.72 24.48,23.56l-13.47 35.69c4.48,3.94 45.17,27.64 50.22,29.08l24.75 -27.38c5.04,0.73 12.82,3.85 18.32,5.29 6.96,1.81 12.6,2.91 19.96,4.52l6.14 35.93c4.96,2.9 45.33,-0.02 58.12,1.68 0.75,-8.01 3.22,-35.05 9.75,-37.64l7.23 -1.69c12.53,-2.68 18.25,-5.33 28.73,-8.09 8.02,9.47 15.98,19.61 23.29,29.05l49.8 -28.17c0.19,-10.65 -11.13,-27.34 -11.14,-37.17 10.96,-8.52 17.32,-17.69 27.97,-27.61l34.42 13.09c4.24,-3.45 11.08,-17.81 14.84,-24.33 4.04,-7.02 11.06,-17.31 14.44,-25.25 -2.22,-3.37 -23.65,-22.02 -28.4,-23.95 0.64,-2.95 10.39,-38.33 10.67,-38.84 5.19,-3.2 28.64,-5.37 37.23,-6.41l-0.07 -58.57c-5.02,-1.24 -35.77,-5.85 -36.37,-7.59l-11.26 -37.67c9.87,-8.46 20.92,-15.17 29.48,-24.35 -2.82,-7.18 -22.58,-38.99 -28.57,-50.47l-36.6 12.88c-9.74,-8.26 -17.31,-18.37 -27.78,-26.51 2.5,-11.21 12.75,-27.9 13.7,-38.45 -5.78,-1.14 -39.67,-23.44 -50.01,-27.78l-25.23 30.36c-8.33,-0.82 -10.7,-3.13 -17.78,-5.7 -5.75,-2.08 -12.08,-2.98 -19.4,-3.67l-5.24 -33.14c-0.61,-4.67 0.17,-7.5 -4.12,-7.5l-52.55 0c-4.85,0 -4.08,4.42 -4.83,9.27l-5.82 32.65c-9.11,-4.13 -27.92,6.04 -36.77,8.09 -3.8,-5.63 -7.65,-10.43 -11.99,-16.24 -3.14,-4.19 -8.64,-12.69 -12.37,-14.73 -3.71,1.29 -9.68,5.18 -13.35,7.35l-25.51 14.23c-5.37,2.65 -7.99,4.22 -12.16,7.13l12.77 36.87z"/>
  <path class="fil5" d="M4218.14 2273.36c-115.54,0 -209.2,-91.81 -209.2,-205.06 0,-113.25 93.66,-205.05 209.2,-205.05 115.53,0 209.2,91.8 209.2,205.05 0,113.25 -93.67,205.06 -209.2,205.06z"/>
  <path class="fil6" d="M4359.32 729.58c0,71.58 -56.89,129.61 -127.05,129.61 -70.17,0 -127.05,-58.03 -127.05,-129.61 0,-71.59 56.88,-129.62 127.05,-129.62 70.16,0 127.05,58.03 127.05,129.62z"/>
  <path class="fil7" d="M2965.29 2118.52c0,71.58 -56.88,129.61 -127.05,129.61 -70.16,0 -127.04,-58.03 -127.04,-129.61 0,-71.59 56.88,-129.62 127.04,-129.62 70.17,0 127.05,58.03 127.05,129.62z"/>
  <path class="fil8" d="M2651.48 747.68c0,-117.19 93.11,-212.19 207.98,-212.19 114.87,0 207.99,95 207.99,212.19 0,117.19 -93.12,212.19 -207.99,212.19 -114.87,0 -207.98,-95 -207.98,-212.19z"/>
  <path class="fil0" d="M3196.33 1406.38c0,-187.46 159.75,-342.23 349.66,-338.86 188.53,3.34 339.4,159.05 337.02,351.5 -1.08,87.29 -43.57,183.12 -104.92,239.74 -228.08,210.49 -581.76,54.12 -581.76,-252.38zm77 -316c-2.98,3.81 -50.69,51.16 -53.46,53.05 -14.53,-3.52 -64.03,-26.96 -70.82,-26.06 -7.91,2.66 -53.86,88.85 -58.54,96.88l57.75 50.6c-1.12,10.59 -15.03,43.14 -19.42,75.07l-76.01 10.8 0.15 116.36c13.56,2.04 29.17,5.23 41.16,7.29l29.4 6.03c7.74,3.08 7.81,22.7 12.47,40.3 3.3,12.46 6.72,24.16 10.51,34.79 -12.31,13 -50.05,36.46 -58.14,48.07l55.61 98.62c18.4,-1.11 49,-18.96 70.82,-23.57l8.2 7.8c11.07,12.61 35.79,38.89 48.28,46.46l-26.57 70.4c8.82,7.78 89.08,54.52 99.05,57.35l48.82 -54c9.92,1.45 25.29,7.61 36.13,10.43 13.72,3.57 24.85,5.75 39.36,8.92l12.13 70.87c9.77,5.72 89.4,-0.03 114.62,3.31 1.49,-15.8 6.35,-69.13 19.23,-74.23l14.26 -3.34c24.7,-5.28 36,-10.51 56.65,-15.96 15.84,18.68 31.53,38.7 45.95,57.3l98.22 -55.56c0.39,-21 -21.96,-53.92 -21.96,-73.31 21.61,-16.82 34.16,-34.9 55.16,-54.46l67.88 25.83c8.37,-6.82 21.88,-35.13 29.28,-47.99 7.97,-13.86 21.81,-34.14 28.49,-49.82 -4.38,-6.63 -46.65,-43.42 -56.03,-47.24 1.27,-5.82 20.51,-75.58 21.05,-76.59 10.24,-6.31 56.49,-10.6 73.44,-12.64l-0.13 -115.53c-9.92,-2.45 -70.56,-11.53 -71.75,-14.97l-22.2 -74.3c19.46,-16.68 41.24,-29.92 58.15,-48.03 -5.58,-14.16 -44.55,-76.9 -56.35,-99.54l-72.2 25.4c-19.2,-16.29 -34.15,-36.23 -54.79,-52.29 4.93,-22.12 25.14,-55.03 27.01,-75.84 -11.39,-2.25 -78.24,-46.23 -98.62,-54.8l-49.77 59.89c-16.42,-1.61 -21.1,-6.17 -35.07,-11.23 -11.35,-4.12 -23.83,-5.9 -38.26,-7.24l-10.35 -65.36c-1.2,-9.23 0.35,-14.8 -8.12,-14.8l-103.64 0c-9.57,0 -8.04,8.7 -9.53,18.28l-11.47 64.41c-17.97,-8.16 -55.08,11.9 -72.54,15.94 -7.5,-11.11 -15.08,-20.56 -23.66,-32.02 -6.18,-8.27 -17.03,-25.05 -24.37,-29.06 -7.33,2.54 -19.11,10.21 -26.35,14.5l-50.31 28.06c-10.58,5.23 -15.77,8.33 -23.99,14.07l25.19 72.7z"/>
  <path class="fil9" d="M-5.39 3960.44l0 -500 117.25 0 0 208.33 276.97 -208.33 168.76 0 -331.39 235.63 372.09 264.37 -187.18 0 -299.25 -219.96 0 219.96 -117.25 0zm1088.98 -418.6l-265.34 0 0 119.18 265.34 0c19.7,0 33.59,-2.58 41.67,-7.59 7.9,-5.97 11.78,-15.34 11.78,-28.26l0 -47.48c0,-12.92 -3.88,-22.29 -11.78,-28.26 -8.08,-5.01 -21.97,-7.59 -41.67,-7.59zm0 201.54l-265.34 0 0 126.95 265.34 0c22.44,0 37.3,-3.24 44.73,-9.69 7.75,-6.79 11.63,-18.41 11.63,-34.73l0 -37.79c0,-16.63 -3.88,-28.26 -11.63,-35.05 -7.59,-6.45 -22.44,-9.69 -44.73,-9.69zm-379.68 217.06l0 -500 428.29 0c39.08,0 67.99,7.75 86.4,23.42 17.28,15.5 26,40.05 26,73.65l0 60.88c0,23.42 -7.43,42.47 -22.28,57.33 -15.35,15.34 -36.67,24.22 -63.96,26.97 28.91,3.87 51.2,14.37 66.86,31.17 15.67,16.31 23.42,37.79 23.42,64.76l0 63.95c0,32.3 -12.28,56.85 -36.98,73.81 -23.75,15.98 -60.57,24.06 -110.47,24.06l-397.28 0zm866.27 -199.61l218.99 0 -108.69 -203.49 -110.3 203.49zm-223.84 199.61l281.98 -500 112.24 0 286.98 500 -130.81 0 -60.08 -109.49 -316.85 0 -58.31 109.49 -115.15 0zm783.91 0l0 -500 116.28 0 0 193.8 363.37 0 0 -193.8 117.25 0 0 500 -117.25 0 0 -215.12 -363.37 0 0 215.12 -116.28 0zm1043.6 -410.85l0 410.85 -116.28 0 0 -410.85 -229.65 0 0 -89.15 576.55 0 0 89.15 -230.62 0zm324.61 29.07c0,-45.22 8.4,-76.23 25.03,-92.86 17.93,-16.96 50.88,-25.36 99.01,-25.36l368.05 0c48.45,0 81.07,8.4 97.86,25.36 17.61,16.47 26.33,47.48 26.33,92.86l0 263.57c0,45.54 -8.72,76.54 -26.33,93.18 -16.95,16.63 -49.58,25.03 -97.86,25.03l-368.05 0c-47.97,0 -80.92,-8.4 -99.01,-25.03 -16.63,-16.8 -25.03,-47.81 -25.03,-93.18l0 -263.57zm116.28 287.79l383.72 0 0 -316.86 -383.72 0 0 316.86zm1028.09 -319.77l-261.62 0 0 132.75 261.62 0c20.35,0 34.24,-2.9 41.67,-8.72 7.11,-5.81 10.66,-16.15 10.66,-31l0 -53.3c0,-14.86 -3.55,-25.19 -10.66,-31.01 -7.43,-5.81 -21.32,-8.72 -41.67,-8.72zm-375.96 413.76l0 -500 427.16 0c39.24,0 68.47,7.43 87.37,22.45 17.44,15.35 26.16,40.05 26.16,74.45l0 111.43c0,33.6 -8.72,57.98 -26.32,73.48 -18.41,15.67 -47.48,23.42 -87.21,23.42l-312.82 0 0 194.77 -114.34 0zm1277.12 0l0 -500 -79.45 0 -351.75 294.74c-14.53,11.3 -25.19,20.34 -31.81,26.96 -6.46,6.47 -15.02,15.51 -25.35,27.14 0.96,-11.95 1.77,-22.77 2.25,-32.14 0.49,-9.53 1.13,-18.41 1.78,-26.97 0.65,-7.75 0.97,-16.79 0.97,-27.13l0 -262.6 -104.81 0 0 500 79.46 0 367.24 -309.27c9.37,-7.91 17.12,-15.02 23.26,-21.15 6.94,-6.62 13.08,-13.09 18.41,-19.38 -0.33,5.65 -0.97,13.24 -1.94,22.61 -0.97,9.52 -1.62,16.47 -2.1,21.15 -0.64,9.53 -0.97,21.48 -0.97,35.69l0 270.35 104.81 0zm174.25 0l0 -93.99 285.86 0 161.82 0 0 -82.37 -323.64 0c-48.45,0 -81.08,-8.39 -98.03,-25.35 -17.28,-16.31 -26.01,-47.32 -26.01,-92.86l0 -205.43 116.29 0 0 237.4 331.39 0 0 -237.4 116.28 0 0 381.79c0,45.37 -8.4,76.38 -25.03,93.18 -18.1,16.63 -51.04,25.03 -99,25.03l-162.79 0 -153.1 0 -124.04 0zm713.34 0l0 -500 93.99 0 235.3 302.17 230.79 -302.17 93.02 0 0 500 -107.56 0 0 -309.27c0,-8.88 0.33,-16.31 0.97,-22.12 0.81,-7.76 1.78,-18.09 2.75,-31.01 -3.24,6.14 -6.3,12.11 -9.05,17.77 -2.74,5.81 -5.16,10.49 -7.43,14.21 -5.17,9.52 -9.36,16.31 -12.59,20.34l-187.99 250 -23.25 0 -187.82 -250.97c-5.98,-7.75 -11.79,-16.79 -17.44,-27.29 -6.14,-9.36 -10.34,-17.44 -12.61,-24.06 0.97,10.5 1.94,20.19 2.91,29.07l0 24.06 0 309.27 -93.99 0z"/>
 </g>
</svg>
