<?xml version="1.0" encoding="UTF-8"?>
<!DOCTYPE svg PUBLIC "-//W3C//DTD SVG 1.1//EN" "http://www.w3.org/Graphics/SVG/1.1/DTD/svg11.dtd">
<!-- Creator: CorelDRAW 2020 (64-Bit) -->
<svg xmlns="http://www.w3.org/2000/svg" xml:space="preserve" width="80mm" height="80mm" version="1.1" style="shape-rendering:geometricPrecision; text-rendering:geometricPrecision; image-rendering:optimizeQuality; fill-rule:evenodd; clip-rule:evenodd"
viewBox="0 0 8000 8000"
 xmlns:xlink="http://www.w3.org/1999/xlink"
 xmlns:xodm="http://www.corel.com/coreldraw/odm/2003">
 <defs>
  <style type="text/css">
   <![CDATA[
    .fil0 {fill:#EF7F1A}
   ]]>
  </style>
 </defs>
 <g id="Layer_x0020_1">
  <metadata id="CorelCorpID_0Corel-Layer"/>
  <g id="_2453512794016">
   <path class="fil0" d="M1805.16 5891.02l4119.51 0c189.55,0 344.66,155.06 344.66,344.65l0 0c0,189.61 -155.11,344.69 -344.66,344.69l-4119.51 0c-189.56,0 -344.64,-155.08 -344.64,-344.69l0 0c0,-189.59 155.08,-344.65 344.64,-344.65zm470.45 236.18l-44.82 271.46 -93.29 0 45.67 -277.05 -81.73 70.1 -54.04 -70.1 72.77 -59.01c13.33,-9.59 26.43,-16.94 39.12,-21.8 12.68,-4.93 26.15,-7.43 40.31,-7.43 13.14,0 24.92,2 35.46,6.13 10.59,4.05 19.38,10 26.1,17.75 6.82,7.83 11.5,17.57 14.26,29.36 2.57,11.73 2.65,25.25 0.19,40.59zm449.43 -94.3c19.36,0 36.22,3.2 50.41,9.67 14.19,6.41 25.68,15.25 34.39,26.28 8.78,11.15 14.83,23.91 18,38.64 3.29,14.62 3.6,30.08 0.85,46.36l-20.35 123.67c-2.6,16.37 -8.18,31.71 -16.48,46 -8.51,14.5 -18.68,27.04 -30.94,37.89 -12.39,10.84 -26.12,19.31 -41.39,25.56 -15.18,6.22 -31.15,9.35 -47.61,9.35l-265.37 0c-16.36,0 -31.54,-3.02 -45.62,-9.22 -14.09,-6.17 -26.16,-14.64 -35.93,-25.32 -9.97,-10.67 -17.2,-23.4 -21.87,-37.84 -4.63,-14.37 -5.57,-29.84 -2.85,-46.42l22.84 -138.95c2.66,-15.84 8.7,-30.23 18.13,-43.26 9.45,-12.97 20.81,-24.12 34,-33.25 13.36,-9.28 27.88,-16.4 43.57,-21.55 15.79,-5 31.14,-7.61 46.37,-7.61l259.85 0zm-308.02 93.83l-28.67 173.54 326.81 0 28.55 -173.54 -326.69 0zm893.44 77.26l28.38 -172.74 95.86 0 -28.47 172.74 39.67 0 -15.49 94.3 -39.86 0 -16.48 100.37 -95.72 0 16.57 -100.37 -298.89 0c-22.45,0 -42.13,-2.04 -59.02,-6.27 -16.78,-4.15 -30.53,-11.19 -40.94,-21.21 -10.52,-9.96 -17.59,-23.11 -21.18,-39.42 -3.54,-16.51 -3.35,-36.92 0.73,-61.54l22.66 -137.49 100.32 0 -28.32 171.63 340.18 0zm152.94 194.67l11.01 -66.94 90.48 0 -15.79 95.89c-1.53,9.33 -5.75,18.2 -12.55,26.5 -6.78,8.34 -14.99,15.68 -24.56,22 -9.65,6.31 -19.87,11.2 -30.89,14.83 -11.08,3.69 -21.68,5.46 -31.63,5.46l10.72 -65.94 22.47 0 5.24 -31.8 -24.5 0zm601.89 -364.79c20.12,0 37.99,3.22 53.08,9.47 15.2,6.25 27.67,14.88 37.27,25.68 9.61,10.84 16.24,23.53 20.01,38.1 3.71,14.57 4.27,29.98 1.61,46.32l-21.24 128.63c-2.65,15.89 -8.35,30.86 -17.36,44.89 -8.88,14.06 -19.8,26.38 -32.48,37.11 -12.73,10.59 -26.79,19.17 -42.25,25.27 -15.47,6.2 -30.94,9.32 -46.36,9.32l-393.72 0 15.64 -94.8 417.2 0 6.93 -42.01 -316.89 0c-15.75,0 -30.45,-2.85 -44.17,-8.63 -13.54,-5.55 -25.16,-13.44 -34.73,-23.49 -9.29,-10.06 -16.41,-21.78 -20.78,-35.55 -4.33,-13.77 -5.18,-28.83 -2.44,-45.12 2.71,-16.76 8.81,-32.26 18.19,-46.38 9.29,-14.02 20.73,-26.09 34.14,-36.28 13.34,-10.21 28.1,-18.22 44.26,-23.93 16.22,-5.73 32.34,-8.6 48.7,-8.6l275.39 0zm-325.2 93.33l-7.05 42.77 345.71 0 7.06 -42.77 -345.72 0zm768.93 271.46l40.59 -246.77c3.4,-20.49 9.96,-38.17 19.88,-52.81 9.93,-14.78 21.91,-26.81 35.96,-36.24 14.24,-9.57 30.1,-16.46 47.55,-20.84 17.63,-4.55 35.72,-6.74 54.46,-6.74l364.37 0 -15.33 93.31 -411.19 0 -6.57 39.82 410.2 0 -15.17 91.81 -410.22 0 -22.7 138.46 -91.83 0zm640.98 2.5l-88.52 -2.5 45.38 -275.11c2.1,-12.47 6.27,-24.07 12.59,-35.11 6.46,-11.03 14.41,-20.63 23.84,-28.8 9.5,-8.26 19.92,-14.76 31.59,-19.64 11.59,-4.74 23.72,-7.1 36.31,-7.1 12.02,0 22.68,2.08 32.08,6.18 9.41,4.1 17.61,9.69 24.68,16.8 7.17,7.13 13.06,15.56 17.71,25.19 4.74,9.56 8.54,19.73 10.96,30.59l49.28 204.25 126.1 -215.16c11.8,-22 26.18,-38.99 43.2,-50.57 16.97,-11.55 36.4,-17.28 58.49,-17.28 13.84,0 26.01,2.85 36.23,8.35 10.38,5.54 18.7,13.03 25.12,22.48 6.43,9.3 10.86,20.19 13.03,32.4 2.27,12.31 2.4,24.99 0.19,38.31l-43.55 264.22 -89.02 0 44.44 -269.01 -119.48 192.18c-7.92,12.77 -15.52,24.46 -22.99,35.07 -7.38,10.57 -15.25,19.64 -23.57,27.09 -8.35,7.59 -17.55,13.28 -27.38,17.5 -9.9,4.12 -21.35,6.24 -34.44,6.24 -12.02,0 -22.58,-2.64 -31.22,-7.52 -9,-4.9 -16.64,-11.29 -23.27,-19.33 -6.67,-8.06 -12.23,-17.16 -16.68,-27.54 -4.68,-10.34 -8.4,-20.93 -11.65,-31.97l-55.19 -188.37 -44.26 268.16z"/>
   <path class="fil0" d="M5130.77 4779.54c-58.14,0 -114.5,48.47 -125.93,105.08 -10.67,52.84 21.29,96.09 76.13,96.09 58.14,0 114.5,-48.46 125.94,-105.08 10.66,-52.82 -21.3,-96.09 -76.14,-96.09zm-2626.78 557.88c10.72,-71.08 -1.29,-138.29 -50.49,-194.36 -53.34,-60.8 -123.77,-84.37 -203.61,-84.37l-236.25 0c-95.99,0 -180.81,31.12 -255.69,91.08 -75.33,60.36 -123.99,137.24 -143.14,232.03l-68.73 340.3 223.63 0 71.64 -354.71c5.78,-28.6 21.33,-52.36 43.26,-71.37 22.08,-19.13 47.98,-30.84 77.42,-30.84l230.12 0c27.43,0 50.91,10.49 66.78,33.17 8.51,12.15 13.47,25.31 15.27,39.07l229.79 0zm851.8 384.68l172.97 0 68.63 -331.35c17.65,-85.24 7.96,-166.19 -45.84,-236.19 -52.91,-68.86 -125.49,-96.77 -211.31,-96.77l-380.85 0c-93.37,0 -174.34,35.32 -245.31,95.23 -72.36,61.08 -121.54,136.58 -140.34,229.68 -17.36,85.98 -6.41,167.22 48.7,236.96 54.52,68.98 128.55,97.02 215.48,97.02l348.33 0c21.23,0 50.27,-0.91 68.72,-12.69l117.14 -74.74 -16.32 92.85zm-556.97 -342.07c5.46,-27.01 18.63,-50.22 39.29,-68.5 20.7,-18.32 45.2,-28.29 72.9,-28.29l374.52 0c28.74,0 53.61,10.65 70.97,33.85 17.12,22.85 21.21,49.62 15.61,77.35 -5.51,27.26 -19.64,50.04 -40.67,68.15 -21.19,18.27 -46.16,28.63 -74.22,28.63l-367.3 0c-28.93,0 -53.74,-10.82 -72.35,-33.06 -18.74,-22.4 -24.5,-49.66 -18.75,-78.13zm2092.55 -511.05l-224.38 -0.75 -41.09 203.41 -24.15 -7.7c-25.04,-7.97 -50.98,-11.57 -77.23,-11.57l-468.65 0c-93.72,0 -174.93,35.14 -245.82,95.19 -72.11,61.23 -121.05,136.73 -139.83,229.72 -17.37,85.98 -6.42,167.23 48.7,236.97 54.51,68.98 128.54,97.01 215.47,97.01l455.11 0c95.68,0 179.43,-35.01 253.32,-95.14 74.5,-60.61 125.17,-136.2 144.25,-230.68l104.3 -516.46zm-334.98 520.04c-5.5,27.25 -19.67,49.98 -40.69,68.18 -21.23,18.2 -46.14,28.6 -74.2,28.6l-455.1 0c-28.85,0 -54.91,-9.57 -73.44,-32.15 -19.09,-22.64 -23.45,-50.42 -17.66,-79.04 5.9,-29.23 23.36,-52.19 47.25,-69.52 23.22,-16.86 49.54,-27.27 78.47,-27.27l448.79 0c28.9,0 54.41,10.47 71.75,34.13 16.6,23.02 20.38,49.63 14.83,77.07zm488.35 333.08l130.86 -647.97 -223.66 0.75 -126.49 647.22 219.29 0zm174.09 -321.34c-16.49,81.63 -7.22,159.67 46.23,225.95 52.6,65.26 124.27,90.87 206.95,90.87l455.11 0c99.49,0 185.76,-37.02 261.4,-100.35 76.87,-64.37 128.77,-144.08 148.66,-242.62 16.39,-81.11 6.15,-157.87 -45.11,-224.12 -50.72,-65.3 -120.22,-91.8 -201.94,-91.8l-468.64 0c-98.18,0 -183.23,35.82 -257.44,99.61 -75.36,64.93 -125.5,144.78 -145.22,242.46zm890.73 -10.84c-5.97,29.54 -22.21,53.49 -45.56,72.23 -23.01,18.64 -49.57,29.98 -79.46,29.98l-455.11 0c-27.32,0 -51.8,-9.49 -68.59,-31.53 -16.58,-21.75 -19.89,-47.85 -14.57,-74.26 5.86,-28.99 20.34,-53.51 42.75,-72.87 22.28,-19.1 48.37,-29.32 77.76,-29.32l462.32 0c27.11,0 50.98,9.72 67.12,31.95 15.85,21.85 18.59,47.82 13.34,73.82z"/>
   <path class="fil0" d="M3929.19 1125.57c974.92,0 1765.51,790.58 1765.51,1765.49 0,974.97 -790.59,1765.5 -1765.51,1765.5 -974.89,0 -1765.49,-790.53 -1765.49,-1765.5 0,-974.91 790.6,-1765.49 1765.49,-1765.49zm483.68 1059.55c-184.15,697.46 -285.99,819.6 65.43,837.94 105.69,-2.26 228.64,-4.93 371.13,-5.3l-1.18 3.93c561.38,45.03 337.69,768.96 -84.71,790.18l-63.29 3.21 -1911.13 -13.14c20.3,-62.3 40.53,-124.64 60.78,-187.04 71.96,-221.62 144,-443.21 216.1,-664.76 81.64,-251.17 188.16,-547.46 257.08,-802.26 168.38,-621.49 1280.45,-685.08 1089.79,37.24z"/>
  </g>
 </g>
</svg>
